<svg width="33" height="33" viewBox="0 0 33 33" fill="none" xmlns="http://www.w3.org/2000/svg">
<g clip-path="url(#clip0_1_327)">
<path d="M11.7183 22.0307V28.4897C12.5882 29.0453 14.8518 30.0785 20.0334 30.5182C21.0328 30.603 22.0485 30.4626 22.971 30.113C26.4381 28.7988 29.4225 26.0529 30.8978 24.5258L31.0173 24.6412L30.8978 24.5258C31.3454 24.0624 31.371 23.3414 30.9574 22.8481L30.9573 22.8481C30.6089 22.4321 30.0364 22.2877 29.5321 22.4882L24.7747 24.3808C24.7747 24.3808 24.7747 24.3808 24.7747 24.3808C24.5005 24.4899 24.2159 24.5661 23.9272 24.6103C24.0481 24.9451 24.0856 25.3134 24.0197 25.6843L24.0197 25.6844L24.009 25.7443C23.8298 26.7516 22.9383 27.4816 21.9328 27.4816C21.8681 27.4816 21.8033 27.4785 21.7381 27.4724C21.738 27.4724 21.738 27.4723 21.738 27.4723L15.6958 26.9046L15.6958 26.9046L15.7113 26.7392C15.4614 26.7157 15.2778 26.4942 15.3014 26.2443L11.7183 22.0307ZM11.7183 22.0307H13.8361C14.1845 22.0307 14.5296 22.0837 14.8622 22.188L14.8622 22.188L22.165 24.4777L22.1663 24.4782L22.1803 24.4827L22.1803 24.4827L22.1824 24.4834C22.6118 24.6159 22.8732 25.041 22.7974 25.4669L22.7868 25.5267C22.7868 25.5267 22.7868 25.5268 22.7868 25.5268C22.7085 25.9656 22.2979 26.2775 21.854 26.2365C21.854 26.2365 21.8539 26.2365 21.8539 26.2365L11.7183 22.0307ZM10.7531 20.362H9.26701C9.1956 19.8909 8.78805 19.5292 8.29736 19.5292H6.32246H2.12253C1.95379 19.5292 1.81886 19.6075 1.71835 19.7164C1.62069 19.8222 1.55116 19.9607 1.50113 20.1013C1.40091 20.3829 1.36337 20.7179 1.36337 20.9555V29.589C1.36337 29.8267 1.40092 30.1598 1.50126 30.4396C1.55138 30.5793 1.62103 30.7168 1.71887 30.8219C1.81959 30.9301 1.95439 31.0073 2.12253 31.0073H8.29759C8.7881 31.0073 9.1956 30.6456 9.26701 30.1745H10.7531C11.0597 30.1745 11.3328 30.031 11.5094 29.8084C12.662 30.4305 14.1763 30.864 15.6742 31.1669C17.2345 31.4823 18.7905 31.6585 19.9284 31.755C20.1526 31.7741 20.3773 31.7835 20.6018 31.7835C21.5632 31.7835 22.5224 31.6106 23.4109 31.2739L23.352 31.1185L23.4109 31.2739C27.1143 29.8702 30.2535 26.9793 31.7907 25.3881C32.6804 24.4672 32.7314 23.0321 31.909 22.0508C31.216 21.2234 30.0761 20.9356 29.0732 21.3346L24.3158 23.2273C23.7513 23.4518 23.1207 23.4756 22.5408 23.2946L15.2336 21.0034C14.7808 20.8613 14.3106 20.7894 13.8361 20.7894H11.5537C11.3807 20.5324 11.087 20.362 10.7531 20.362ZM5.72692 19.9747C5.71064 20.0302 5.70191 20.0889 5.70191 20.1497C5.70191 20.1946 5.70668 20.2384 5.71573 20.2807C5.49211 20.2459 5.27678 20.207 5.10742 20.1653C5.07206 20.1566 5.0396 20.148 5.01013 20.1396C5.01843 20.1368 5.027 20.134 5.03585 20.1312C5.19791 20.08 5.41656 20.0326 5.63425 19.9917C5.66536 19.9859 5.69631 19.9802 5.72692 19.9747ZM6.84729 20.7705C6.84741 20.7705 6.84754 20.7705 6.84767 20.7705H8.03652V29.766H3.0251V20.7705H6.32246H6.84708H6.84729Z" fill="#498837" stroke="#498837" stroke-width="0.332346"/>
<path d="M21.0824 11.7493C20.0238 11.7142 19.1594 11.1672 19.1594 10.6028C19.1594 10.3028 19.4242 9.8619 19.7593 9.8619C20.1296 9.8619 20.4296 10.3823 21.0824 10.497V9.0678C20.2709 8.75932 19.3185 8.37984 19.3185 7.25099C19.3185 6.13066 20.1473 5.59286 21.0824 5.46045V5.21338C21.0824 5.08985 21.2237 4.97519 21.4178 4.97519C21.5854 4.97519 21.7529 5.08985 21.7529 5.21338V5.43383C22.3 5.45158 23.3319 5.59286 23.3319 6.2013C23.3319 6.4395 23.1729 6.92441 22.7849 6.92441C22.4938 6.92441 22.3262 6.64255 21.7529 6.59818V7.88606C22.5556 8.18602 23.4902 8.60029 23.4902 9.79126C23.4902 10.885 22.7849 11.5467 21.7529 11.7142V11.9698C21.7529 12.0933 21.585 12.208 21.4175 12.208C21.2237 12.208 21.0824 12.0933 21.0824 11.9698V11.7493ZM21.1704 7.67413V6.6248C20.7735 6.70396 20.606 6.90701 20.606 7.11858C20.606 7.37453 20.8353 7.5332 21.1704 7.67413ZM21.6645 9.30599V10.4881C21.9645 10.4174 22.2027 10.2499 22.2027 9.93254C22.2027 9.6411 21.9819 9.45615 21.6645 9.30599Z" fill="#498837"/>
<path d="M18.8255 1.28968L18.8255 1.28969L19.0906 1.20744C19.096 1.20566 19.103 1.2035 19.1106 1.20149C19.8314 0.993444 20.5803 0.887843 21.3365 0.887843C25.7538 0.887843 29.3471 4.4812 29.3471 8.89845C29.3471 13.3157 25.7538 16.9091 21.3365 16.9091C16.9193 16.9091 13.3259 13.3157 13.3259 8.89845C13.3259 7.01888 13.99 5.19157 15.1965 3.75336L15.1966 3.75329C15.4975 3.39499 16.0321 3.34751 16.3908 3.64872L18.8255 1.28968ZM18.8255 1.28968L18.8235 1.29034M18.8255 1.28968L18.8235 1.29034M18.8235 1.29034C18.8101 1.29468 18.7938 1.30005 18.7766 1.30669L18.2403 1.50912L18.2396 1.50937M18.8235 1.29034L18.2396 1.50937M18.2396 1.50937C18.2252 1.51489 18.2102 1.52104 18.1951 1.52788C18.1948 1.52799 18.1946 1.5281 18.1943 1.52822L17.982 1.62238L17.9818 1.62245L18.2396 1.50937ZM16.4959 4.84305L16.4958 4.84306C15.5452 5.97635 15.0218 7.41667 15.0218 8.89845C15.0218 12.3803 17.8547 15.2132 21.3365 15.2132C24.818 15.2132 27.651 12.3803 27.651 8.89845C27.651 5.41661 24.818 2.58404 21.3365 2.58404C20.7408 2.58404 20.1527 2.66624 19.5869 2.82909L19.3526 2.90202L18.8619 3.08709L18.6707 3.17208L18.6707 3.17211L18.6032 3.02027L16.4959 4.84305ZM16.4959 4.84305C16.7966 4.48448 16.7497 3.94984 16.3909 3.64879L16.4959 4.84305Z" fill="#498837" stroke="#498837" stroke-width="0.332346"/>
</g>
<defs>
<clipPath id="clip0_1_327">
<rect width="31.9052" height="31.9052" fill="white" transform="translate(0.86113 0.230591)"/>
</clipPath>
</defs>
</svg>
