<svg width="31" height="34" viewBox="0 0 31 34" fill="none" xmlns="http://www.w3.org/2000/svg">
<path d="M16.0316 2.25063L28.4246 5.5298C28.7162 5.60695 28.9193 5.87076 28.9193 6.17238V21.2422C28.9193 22.5807 28.2478 23.83 27.1314 24.5685L15.8883 32.0058C15.6659 32.1529 15.3772 32.1529 15.1548 32.0058L3.91168 24.5685C2.79531 23.83 2.12384 22.5807 2.12384 21.2422V6.17238C2.12384 5.87076 2.32692 5.60695 2.61851 5.5298L15.0115 2.25063C15.3458 2.16217 15.6973 2.16217 16.0316 2.25063Z" stroke="#498837" stroke-width="2.65877" stroke-linecap="round"/>
<path d="M11.0551 16.2968L14.5108 19.7257C14.5755 19.79 14.6801 19.79 14.7448 19.7257L20.8801 13.638" stroke="#498837" stroke-width="2.65877" stroke-linecap="round"/>
</svg>
