<svg width="33" height="33" viewBox="0 0 33 33" fill="none" xmlns="http://www.w3.org/2000/svg">
<g clip-path="url(#clip0_1_343)">
<path d="M16.5401 0.229706C7.72994 0.229706 0.587463 7.37218 0.587463 16.1823C0.587463 24.9925 7.72994 32.1349 16.5401 32.1349C25.3502 32.1349 32.4927 24.9925 32.4927 16.1823C32.4927 7.37218 25.3502 0.229706 16.5401 0.229706ZM16.5401 2.68395C23.9949 2.68395 30.0385 8.72754 30.0385 16.1823C30.0385 23.6371 23.9949 29.6807 16.5401 29.6807C9.0853 29.6807 3.04171 23.6371 3.04171 16.1823C3.04171 8.72754 9.0853 2.68395 16.5401 2.68395ZM15.6197 5.1382L15.9265 7.59245H17.1536L17.4604 5.1382H15.6197ZM23.916 7.93878L17.307 13.8527C17.0596 13.7707 16.8007 13.7286 16.5401 13.7281C15.8892 13.7281 15.2649 13.9866 14.8047 14.4469C14.3444 14.9072 14.0858 15.5314 14.0858 16.1823C14.0858 16.8332 14.3444 17.4575 14.8047 17.9177C15.2649 18.378 15.8892 18.6366 16.5401 18.6366C16.6888 18.6361 16.8373 18.622 16.9835 18.5946L21.9495 22.7098L23.0688 21.5917L18.9524 16.6245C19.0263 16.2209 18.9979 15.8052 18.8697 15.4154L24.7836 8.80639L23.916 7.93878ZM5.49596 15.262V17.1027L7.95021 16.7959V15.5688L5.49596 15.262ZM27.5842 15.262L25.13 15.5688V16.7959L27.5842 17.1027V15.262ZM15.9265 24.7722L15.6197 27.2264H17.4604L17.1536 24.7722H15.9265Z" fill="#498837"/>
</g>
<defs>
<clipPath id="clip0_1_343">
<rect width="31.9052" height="31.9052" fill="white" transform="translate(0.587708 0.230591)"/>
</clipPath>
</defs>
</svg>
