<svg width="21" height="22" viewBox="0 0 21 22" fill="none" xmlns="http://www.w3.org/2000/svg">
<path d="M20 10.949C20 5.68303 15.7467 1.41406 10.5 1.41406C5.25334 1.41406 1 5.68303 1 10.949C1 15.4204 4.06736 19.1726 8.20518 20.2031V13.8628H6.24628V10.949H8.20518V9.6934C8.20518 6.44811 9.66856 4.94388 12.8431 4.94388C13.445 4.94388 14.4835 5.0625 14.9084 5.18073V7.82189C14.6842 7.79825 14.2947 7.78642 13.8109 7.78642C12.2533 7.78642 11.6514 8.37873 11.6514 9.91843V10.949H14.7545L14.2213 13.8628H11.6514V20.4141C16.3547 19.8439 20 15.824 20 10.949Z" stroke="white" stroke-width="1.31"/>
</svg>
