<svg width="33" height="33" viewBox="0 0 33 33" fill="none" xmlns="http://www.w3.org/2000/svg">
<path d="M32.6289 16.9284C32.6289 24.4077 27.4918 30.6913 20.5334 32.4856C19.2313 32.8204 17.8668 32.9998 16.4588 32.9998C16.1758 32.9998 15.8945 32.9929 15.6133 32.9791C7.07335 32.5426 0.285156 25.5239 0.285156 16.9284C0.285156 8.05327 7.52474 0.856934 16.457 0.856934C25.3893 0.856934 32.6289 8.05327 32.6289 16.9284Z" fill="#395398"/>
<path d="M18.8064 11.2785V14.2281H23.4119L22.812 18.8495H18.8064V28.6411C17.5355 28.9677 16.2037 29.1428 14.8295 29.1428C14.5533 29.1428 14.2788 29.1361 14.0043 29.1226V18.8495H9.98846V14.2281H14.0043V10.8222C14.0043 6.86752 16.4358 4.71423 19.9857 4.71423C21.6869 4.71423 23.1475 4.8405 23.5728 4.89606V9.02922L21.1108 9.0309C19.1808 9.02922 18.8064 9.94171 18.8064 11.2785Z" fill="white"/>
</svg>
