<svg width="20" height="20" viewBox="0 0 20 20" fill="none" xmlns="http://www.w3.org/2000/svg">
<path d="M13.921 19.4141H6.07899C4.5999 19.4123 3.18192 18.8398 2.13605 17.8221C1.09018 16.8045 0.501809 15.4247 0.5 13.9855V5.84264C0.501809 4.40343 1.09018 3.02367 2.13605 2.006C3.18192 0.988324 4.5999 0.415823 6.07899 0.414062H13.921C15.4001 0.415823 16.8181 0.988324 17.864 2.006C18.9098 3.02367 19.4982 4.40343 19.5 5.84264V13.9855C19.4982 15.4247 18.9098 16.8045 17.864 17.8221C16.8181 18.8398 15.4001 19.4123 13.921 19.4141ZM6.07899 1.8078C4.97919 1.80868 3.92465 2.23395 3.14666 2.99034C2.36867 3.74674 1.93074 4.7725 1.92893 5.84264V13.9855C1.93074 15.0559 2.36856 16.082 3.14645 16.839C3.92435 17.5959 4.97888 18.0219 6.07899 18.0237H13.921C15.0208 18.0219 16.075 17.5958 16.8523 16.8388C17.6297 16.0817 18.0667 15.0556 18.0677 13.9855V5.84264C18.0667 4.7728 17.6296 3.74704 16.8521 2.99055C16.0747 2.23406 15.0205 1.80868 13.921 1.8078H6.07899Z" fill="white"/>
<path d="M9.99836 14.9367C8.62295 14.935 7.30444 14.4023 6.33219 13.4557C5.35995 12.509 4.8134 11.2257 4.8125 9.88738C4.81412 9.20528 4.95554 8.53035 5.22848 7.90208C5.50143 7.27381 5.90042 6.70482 6.4021 6.22842C6.87847 5.77218 7.44475 5.41439 8.06688 5.17659C8.68902 4.93879 9.35415 4.82589 10.0223 4.84466C11.6392 4.89123 12.9793 5.42012 13.8989 6.37478C14.342 6.85263 14.6837 7.41103 14.9043 8.01785C15.1249 8.62467 15.22 9.26794 15.1842 9.91066C15.1641 11.2454 14.614 12.5208 13.6493 13.4698C13.1706 13.9371 12.6015 14.3073 11.9748 14.5591C11.3481 14.8109 10.6764 14.9392 9.99836 14.9367ZM9.87871 6.53776C9.03226 6.54038 8.22075 6.86651 7.61908 7.44585C7.28436 7.76372 7.0182 8.1434 6.83623 8.56264C6.65426 8.98189 6.56013 9.43227 6.55935 9.88738C6.56047 10.3268 6.65054 10.7617 6.8244 11.1673C6.99826 11.5729 7.25252 11.9412 7.57266 12.2511C7.89279 12.5611 8.27253 12.8067 8.6902 12.9738C9.10787 13.141 9.55529 13.2264 10.0069 13.2254C10.4585 13.2243 10.9055 13.1366 11.3223 12.9674C11.7391 12.7983 12.1176 12.5509 12.4361 12.2394C12.7547 11.9279 13.0071 11.5584 13.1789 11.1519C13.3506 10.7455 13.4385 10.3102 13.4374 9.87074C13.4927 9.02052 13.2002 8.1835 12.6238 7.54231C12.0289 6.92361 11.1128 6.581 9.97101 6.54441L9.87871 6.53776Z" fill="white"/>
<path d="M15.3117 5.87592C15.9801 5.87592 16.5219 5.34872 16.5219 4.6984C16.5219 4.04807 15.9801 3.52087 15.3117 3.52087C14.6434 3.52087 14.1016 4.04807 14.1016 4.6984C14.1016 5.34872 14.6434 5.87592 15.3117 5.87592Z" fill="white"/>
</svg>
