<svg width="20" height="18" viewBox="0 0 20 18" fill="none" xmlns="http://www.w3.org/2000/svg">
<path d="M18.3917 0.766602H1.60833C1.31449 0.766937 1.03277 0.883815 0.824994 1.0916C0.617213 1.29938 0.500335 1.58109 0.5 1.87494V13.5916C0.500335 13.8854 0.617213 14.1672 0.824994 14.3749C1.03277 14.5827 1.31449 14.6996 1.60833 14.6999H15.697L17.3113 16.459L17.7395 16.9256C17.8239 17.0175 17.9255 17.0919 18.0386 17.1446C18.1517 17.1972 18.2741 17.2271 18.3988 17.2324C18.5234 17.2378 18.6479 17.2185 18.7651 17.1757C18.8823 17.133 18.9899 17.0676 19.0818 16.9832C19.1737 16.8988 19.2481 16.7972 19.3008 16.6841C19.3534 16.571 19.3833 16.4486 19.3886 16.324C19.394 16.1993 19.3747 16.0749 19.3319 15.9577C19.2892 15.8405 19.2238 15.7328 19.1394 15.6409L18.7111 15.1743L18.2757 14.6999H18.3917C18.6855 14.6996 18.9672 14.5827 19.175 14.3749C19.3828 14.1672 19.4997 13.8854 19.5 13.5916V1.87494C19.4997 1.58109 19.3828 1.29938 19.175 1.0916C18.9672 0.883815 18.6855 0.766937 18.3917 0.766602ZM1.13333 1.87494C1.13347 1.749 1.18356 1.62826 1.27261 1.53921C1.36166 1.45016 1.4824 1.40007 1.60833 1.39993H18.3917C18.5176 1.40007 18.6383 1.45016 18.7274 1.53921C18.8164 1.62826 18.8665 1.749 18.8667 1.87494V2.6666H1.13333V1.87494ZM3.98333 14.0666V4.5666H16.0167V12.2382L14.4289 10.5081C14.425 10.5037 14.4206 10.4998 14.4164 10.4957C14.4137 10.493 14.4111 10.4902 14.4082 10.4878C14.4 10.4803 14.3913 10.4732 14.3823 10.4666L14.1087 10.2666H15.0667C15.1507 10.2666 15.2312 10.2332 15.2906 10.1739C15.35 10.1145 15.3833 10.0339 15.3833 9.94994C15.3833 9.86595 15.35 9.78541 15.2906 9.72602C15.2312 9.66663 15.1507 9.63327 15.0667 9.63327H13.2197C13.0831 9.56867 12.9294 9.54981 12.7813 9.57947C12.6331 9.60914 12.4985 9.68576 12.3974 9.79797C12.2962 9.91018 12.2339 10.052 12.2197 10.2024C12.2055 10.3528 12.2402 10.5038 12.3186 10.6329L12.9901 11.7403L12.9915 11.7426V11.7428C12.9917 11.7433 12.992 11.7436 12.9923 11.7441C12.9978 11.753 13.0038 11.7617 13.0102 11.7701C13.0127 11.7735 13.0155 11.7765 13.0181 11.7798C13.0216 11.7841 13.025 11.7886 13.0288 11.7928L13.3721 12.1666H5.56667C5.48268 12.1666 5.40214 12.2 5.34275 12.2594C5.28336 12.3187 5.25 12.3993 5.25 12.4833C5.25 12.5673 5.28336 12.6478 5.34275 12.7072C5.40214 12.7666 5.48268 12.7999 5.56667 12.7999H13.9533L15.1158 14.0666H3.98333ZM17.7971 15.5833L17.5636 15.7975L17.1354 15.3308L17.602 14.9026L18.0302 15.3692L17.7971 15.5833ZM16.7074 14.8642L13.7098 11.5978L14.1764 11.1696L17.174 14.436L16.7074 14.8642ZM12.8726 10.2171C12.8844 10.2063 12.8997 10.1998 12.9157 10.1989C12.9318 10.198 12.9477 10.2027 12.9607 10.2122L13.6969 10.75L13.3328 11.0841L12.86 10.3045C12.8517 10.2907 12.8484 10.2745 12.8507 10.2586C12.853 10.2427 12.8607 10.2281 12.8726 10.2172V10.2171ZM18.6536 16.5166C18.5917 16.5732 18.5098 16.603 18.426 16.5994C18.3421 16.5958 18.2631 16.5591 18.2063 16.4974L17.9922 16.2641L18.4586 15.836L18.6728 16.0693C18.7295 16.1312 18.7594 16.2131 18.7558 16.2969C18.7522 16.3808 18.7154 16.4598 18.6536 16.5166V16.5166ZM18.3917 14.0666H17.6946L16.65 12.9283V4.24994C16.65 4.16595 16.6166 4.0854 16.5573 4.02602C16.4979 3.96663 16.4173 3.93327 16.3333 3.93327H3.66667C3.58268 3.93327 3.50214 3.96663 3.44275 4.02602C3.38336 4.0854 3.35 4.16595 3.35 4.24994V14.0666H1.60833C1.4824 14.0665 1.36166 14.0164 1.27261 13.9273C1.18356 13.8383 1.13347 13.7175 1.13333 13.5916V3.29994H18.8667V13.5916C18.8665 13.7175 18.8164 13.8383 18.7274 13.9273C18.6383 14.0164 18.5176 14.0665 18.3917 14.0666Z" fill="white"/>
<path d="M2.08327 2.34989C2.25816 2.34989 2.39993 2.20811 2.39993 2.03322C2.39993 1.85833 2.25816 1.71655 2.08327 1.71655C1.90838 1.71655 1.7666 1.85833 1.7666 2.03322C1.7666 2.20811 1.90838 2.34989 2.08327 2.34989Z" fill="white"/>
<path d="M3.34987 2.34989C3.52476 2.34989 3.66654 2.20811 3.66654 2.03322C3.66654 1.85833 3.52476 1.71655 3.34987 1.71655C3.17498 1.71655 3.0332 1.85833 3.0332 2.03322C3.0332 2.20811 3.17498 2.34989 3.34987 2.34989Z" fill="white"/>
<path d="M4.61647 2.34989C4.79136 2.34989 4.93314 2.20811 4.93314 2.03322C4.93314 1.85833 4.79136 1.71655 4.61647 1.71655C4.44158 1.71655 4.2998 1.85833 4.2998 2.03322C4.2998 2.20811 4.44158 2.34989 4.61647 2.34989Z" fill="white"/>
<path d="M11.9 11.2166V5.51662C11.9 5.43263 11.8667 5.35209 11.8073 5.2927C11.7479 5.23331 11.6674 5.19995 11.5834 5.19995H4.93337C4.84938 5.19995 4.76884 5.23331 4.70945 5.2927C4.65006 5.35209 4.6167 5.43263 4.6167 5.51662V11.2166C4.6167 11.3006 4.65006 11.3811 4.70945 11.4405C4.76884 11.4999 4.84938 11.5333 4.93337 11.5333H11.5834C11.6674 11.5333 11.7479 11.4999 11.8073 11.4405C11.8667 11.3811 11.9 11.3006 11.9 11.2166ZM11.2667 10.9H5.25003V5.83328H11.2667V10.9Z" fill="white"/>
<path d="M6.8333 9.31657H6.83449C6.84027 9.48074 6.89932 9.63857 7.00272 9.76622C7.10612 9.89386 7.24826 9.98439 7.40766 10.0241L7.79122 10.1201C7.8519 10.1353 7.91422 10.143 7.97678 10.1431C8.17763 10.1425 8.37003 10.0622 8.51184 9.92001C8.65364 9.77778 8.73328 9.58514 8.7333 9.3843V9.35948L9.93129 9.62572C9.97758 9.636 10.0256 9.63576 10.0718 9.625C10.118 9.61425 10.1611 9.59326 10.1981 9.56359C10.2351 9.53392 10.265 9.49631 10.2855 9.45356C10.306 9.4108 10.3166 9.36399 10.3166 9.31657V6.78324C10.3166 6.73582 10.306 6.689 10.2855 6.64625C10.265 6.60349 10.2351 6.56589 10.1981 6.53622C10.1611 6.50654 10.118 6.48555 10.0718 6.4748C10.0256 6.46405 9.97758 6.46381 9.93129 6.47409L7.46287 7.02264C7.32601 6.90113 7.15694 6.82178 6.97602 6.79414C6.79511 6.76649 6.61006 6.79173 6.44315 6.86682C6.27625 6.9419 6.13461 7.06363 6.03528 7.21735C5.93595 7.37107 5.88317 7.55022 5.8833 7.73324V8.36657C5.88358 8.61844 5.98376 8.85991 6.16186 9.03801C6.33996 9.21611 6.58143 9.31629 6.8333 9.31657ZM8.09997 9.3843C8.09997 9.40328 8.09564 9.42202 8.08732 9.43909C8.07899 9.45615 8.06689 9.4711 8.05192 9.48278C8.03695 9.49447 8.01952 9.50259 8.00095 9.50652C7.98237 9.51046 7.96314 9.51011 7.94472 9.5055L7.56128 9.40967C7.53423 9.40294 7.51022 9.38735 7.49306 9.36538C7.47591 9.34341 7.46661 9.31634 7.46663 9.28847V9.078L8.09997 9.21872V9.3843ZM9.6833 8.9218L7.77408 8.49751C7.78016 8.45413 7.78324 8.41038 7.7833 8.36657V7.73324C7.78324 7.68943 7.78016 7.64568 7.77408 7.60229L9.6833 7.178V8.9218ZM6.51663 7.73324C6.51663 7.64925 6.55 7.5687 6.60938 7.50932C6.66877 7.44993 6.74932 7.41657 6.8333 7.41657C6.91729 7.41657 6.99783 7.44993 7.05722 7.50932C7.11661 7.5687 7.14997 7.64925 7.14997 7.73324V8.36657C7.14997 8.45055 7.11661 8.5311 7.05722 8.59049C6.99783 8.64987 6.91729 8.68324 6.8333 8.68324C6.74932 8.68324 6.66877 8.64987 6.60938 8.59049C6.55 8.5311 6.51663 8.45055 6.51663 8.36657V7.73324Z" fill="white"/>
<path d="M13.4832 6.46659H15.0665C15.1505 6.46659 15.231 6.43322 15.2904 6.37384C15.3498 6.31445 15.3832 6.2339 15.3832 6.14992C15.3832 6.06593 15.3498 5.98539 15.2904 5.926C15.231 5.86661 15.1505 5.83325 15.0665 5.83325H13.4832C13.3992 5.83325 13.3186 5.86661 13.2593 5.926C13.1999 5.98539 13.1665 6.06593 13.1665 6.14992C13.1665 6.2339 13.1999 6.31445 13.2593 6.37384C13.3186 6.43322 13.3992 6.46659 13.4832 6.46659Z" fill="white"/>
<path d="M12.8499 8.36673H15.0665C15.1505 8.36673 15.2311 8.33337 15.2905 8.27398C15.3498 8.2146 15.3832 8.13405 15.3832 8.05007C15.3832 7.96608 15.3498 7.88553 15.2905 7.82615C15.2311 7.76676 15.1505 7.7334 15.0665 7.7334H12.8499C12.7659 7.7334 12.6853 7.76676 12.626 7.82615C12.5666 7.88553 12.5332 7.96608 12.5332 8.05007C12.5332 8.13405 12.5666 8.2146 12.626 8.27398C12.6853 8.33337 12.7659 8.36673 12.8499 8.36673Z" fill="white"/>
</svg>
