<svg width="27" height="28" viewBox="0 0 27 28" fill="none" xmlns="http://www.w3.org/2000/svg">
<path d="M14.9694 2.90148C15.076 2.90928 15.1748 2.91708 15.258 2.92878C21.1113 3.82958 23.8033 6.60219 24.5481 12.501C24.5611 12.6011 24.5637 12.7232 24.565 12.8519C24.5728 13.3134 24.5884 14.2727 25.6179 14.2922H25.6491C25.9728 14.2922 26.2288 14.1947 26.4134 14.0023C26.7332 13.6682 26.7124 13.1704 26.6929 12.77C26.689 12.6713 26.6851 12.579 26.6851 12.4971C26.7605 6.4657 21.5376 0.994579 15.5115 0.791801C15.4855 0.791801 15.4621 0.791801 15.4387 0.7957C15.4149 0.798692 15.3911 0.799995 15.3672 0.7996C15.3061 0.7996 15.2333 0.7944 15.154 0.789201C15.0604 0.782702 14.9525 0.774902 14.842 0.774902C13.8827 0.774902 13.7007 1.45733 13.6773 1.86419C13.624 2.80399 14.5327 2.87028 14.9694 2.90148V2.90148ZM24.266 20.1247C24.1404 20.0292 24.0161 19.9321 23.893 19.8335C23.2534 19.3188 22.5736 18.8456 21.9172 18.3868L21.5077 18.1008C20.6654 17.5093 19.9089 17.2221 19.194 17.2221C18.2295 17.2221 17.3898 17.755 16.6956 18.804C16.3889 19.2694 16.0158 19.4955 15.5569 19.4955C15.2382 19.4844 14.9255 19.406 14.6392 19.2655C11.9225 18.0332 9.98053 16.1432 8.87045 13.6488C8.3336 12.4425 8.50778 11.6548 9.45149 11.0126C9.98833 10.6487 10.9853 9.97144 10.9164 8.67287C10.8358 7.20013 7.58488 2.76629 6.21483 2.26325C5.62913 2.0496 4.98712 2.04776 4.40022 2.25805C2.82608 2.78709 1.6978 3.71779 1.13236 4.94616C0.586416 6.13424 0.612414 7.52899 1.20255 8.97964C2.91187 13.1743 5.31402 16.8321 8.344 19.8504C11.309 22.805 14.9538 25.224 19.1758 27.0425C19.5566 27.2063 19.9557 27.296 20.2482 27.361C20.3469 27.3831 20.4327 27.4026 20.4951 27.4195C20.5295 27.4288 20.5649 27.4336 20.6004 27.4338H20.6342C22.6204 27.4338 25.0057 25.6192 25.7375 23.5511C26.3796 21.7391 25.2071 20.8435 24.266 20.1247V20.1247ZM15.8481 7.69408C15.5089 7.70188 14.8004 7.72007 14.5522 8.4402C14.4352 8.77816 14.4495 9.06933 14.5937 9.30981C14.8043 9.66077 15.2086 9.76996 15.5751 9.82975C16.9075 10.0429 17.5925 10.7787 17.729 12.1474C17.7927 12.7843 18.223 13.2302 18.7728 13.2302C18.8145 13.2301 18.8562 13.2275 18.8976 13.2224C19.5605 13.1444 19.8816 12.657 19.853 11.7743C19.8634 10.854 19.3824 9.80895 18.5622 8.97704C17.7407 8.14253 16.7502 7.67198 15.8481 7.69408V7.69408Z" fill="#D0D0D0"/>
</svg>
