<svg width="30" height="30" viewBox="0 0 30 30" fill="none" xmlns="http://www.w3.org/2000/svg">
<path d="M29.2171 24.6923L25.0936 28.7828C24.4849 29.407 23.6781 29.6185 22.8924 29.6194C19.4175 29.5153 16.1331 27.8085 13.4363 26.0558C9.00974 22.8355 4.94817 18.8424 2.39905 14.017C1.42138 11.9935 0.274215 9.4117 0.383818 7.15313C0.393591 6.3035 0.622546 5.46965 1.22091 4.922L5.34439 0.800596C6.20064 0.0722743 7.0287 0.32409 7.57664 1.17245L10.894 7.46302C11.2432 8.20826 11.0429 9.00675 10.5219 9.53926L9.00274 11.0577C8.90896 11.1861 8.84924 11.3324 8.84773 11.4915C9.43028 13.7465 11.1951 15.8249 12.7542 17.2553C14.3132 18.6856 15.989 20.6235 18.1643 21.0822C18.4332 21.1572 18.7625 21.1836 18.9549 21.0048L20.7221 19.2075C21.3313 18.7457 22.2109 18.52 22.8613 18.8976H22.8923L28.876 22.4302C29.7544 22.9808 29.846 24.0449 29.2171 24.6923Z" fill="#79856F"/>
</svg>
