<svg width="51" height="50" viewBox="0 0 51 50" fill="none" xmlns="http://www.w3.org/2000/svg">
<path d="M25.1562 50C39.0497 50 50.3125 38.8071 50.3125 25C50.3125 11.1929 39.0497 0 25.1562 0C11.2628 0 0 11.1929 0 25C0 38.8071 11.2628 50 25.1562 50Z" fill="url(#paint0_linear_1_424)"/>
<path d="M17.0273 26.826L20.0126 35.0371C20.0126 35.0371 20.3852 35.8037 20.784 35.8037C21.1828 35.8037 27.1271 29.6593 27.1271 29.6593L33.7348 16.9741L17.1354 24.7075L17.0273 26.826Z" fill="#C8DAEA"/>
<path d="M20.9862 28.9333L20.4123 34.9852C20.4123 34.9852 20.1737 36.8408 22.0372 34.9852C23.9043 33.1296 25.6895 31.7 25.6895 31.7L20.9862 28.9333Z" fill="#A9C6D8"/>
<path d="M17.0839 27.1185L10.9458 25.1296C10.9458 25.1296 10.2116 24.8334 10.4501 24.163C10.4985 24.0259 10.5954 23.9074 10.8899 23.7037C12.2502 22.763 36.0685 14.2519 36.0685 14.2519C36.0685 14.2519 36.7393 14.0259 37.1381 14.1778C37.3207 14.2445 37.4362 14.3222 37.5331 14.6074C37.5704 14.7111 37.589 14.9296 37.5853 15.1445C37.5816 15.3 37.5629 15.4482 37.548 15.6741C37.4027 18 33.0609 35.3593 33.0609 35.3593C33.0609 35.3593 32.8 36.3741 31.872 36.4111C31.5329 36.4222 31.1192 36.3556 30.6273 35.9334C28.8011 34.3704 22.4878 30.1556 21.094 29.2296C21.0157 29.1778 20.9934 29.1111 20.9784 29.0445C20.9598 28.9482 21.0642 28.8259 21.0642 28.8259C21.0642 28.8259 32.0547 19.1185 32.3453 18.1C32.3677 18.0222 32.282 17.9815 32.1665 18.0148C31.436 18.2815 18.7833 26.2222 17.3858 27.1C17.3112 27.1519 17.0839 27.1185 17.0839 27.1185Z" fill="white"/>
<defs>
<linearGradient id="paint0_linear_1_424" x1="25.1562" y1="50" x2="25.1562" y2="0" gradientUnits="userSpaceOnUse">
<stop stop-color="#1D93D2"/>
<stop offset="1" stop-color="#38B0E3"/>
</linearGradient>
</defs>
</svg>
