<svg width="18" height="20" viewBox="0 0 18 20" fill="none" xmlns="http://www.w3.org/2000/svg">
<path d="M8.93675 0.414482C8.37367 0.417709 7.80898 0.451591 7.23944 0.520968C6.15038 0.654881 5.07101 0.877533 4.0352 1.35349C2.3879 2.11018 1.21979 3.39446 0.880968 5.26118C0.737374 6.04853 0.621209 6.84717 0.555059 7.65065C0.427599 9.21082 0.506656 10.7758 0.948732 12.3134C1.29723 13.5251 1.93937 14.6142 3.06392 15.3208C3.53988 15.6193 4.1675 15.7645 4.49502 15.9162C4.58698 15.9597 4.60957 15.9856 4.61441 15.992C4.61925 15.9968 4.63216 16.0081 4.63055 16.1049C4.61925 17.0924 4.63055 19.0026 4.63055 19.0026L4.63216 19.4141H5.36949L5.48888 19.2979C5.48888 19.2979 7.36206 17.4957 8.03969 16.7535C8.16231 16.6212 8.22524 16.547 8.23814 16.539C8.24944 16.5309 8.23008 16.526 8.35592 16.5228C9.24492 16.5051 10.1323 16.4712 11.0197 16.4228C12.1894 16.3583 13.3817 16.2469 14.5289 15.7677C15.5276 15.3499 16.3617 14.6674 16.8667 13.6445C17.383 12.5958 17.6589 11.4841 17.7621 10.3338C17.9332 8.41864 17.8735 6.50029 17.3443 4.60936C17.0329 3.50095 16.4069 2.56355 15.4469 1.90205C14.2981 1.11148 13.0026 0.814609 11.7344 0.62584C10.9939 0.516127 10.2485 0.443524 9.49984 0.420936C9.31268 0.416095 9.12552 0.412869 8.93675 0.414482ZM9.47725 1.247C10.1888 1.26637 10.9003 1.33574 11.6134 1.44223C12.8364 1.62454 13.99 1.90205 14.979 2.58291C15.7809 3.1347 16.281 3.8801 16.5488 4.8304C17.0426 6.5987 17.1055 8.41057 16.9393 10.2612C16.8441 11.3276 16.5908 12.3328 16.1245 13.2799C15.7131 14.1156 15.071 14.6464 14.2094 15.0062C13.2091 15.4241 12.1216 15.5354 10.9761 15.5983C10.0984 15.6467 9.2191 15.679 8.33979 15.6968C8.11875 15.7016 7.90255 15.7597 7.74928 15.8726C7.596 15.9856 7.52663 16.0904 7.43144 16.1937C6.94741 16.7229 5.98259 17.6538 5.45662 18.1637C5.45339 17.5473 5.44855 16.8019 5.45662 16.1146C5.45984 15.9033 5.41144 15.6871 5.29043 15.5161C5.16943 15.345 5.00325 15.2418 4.84352 15.1676C4.37724 14.9514 3.76737 14.7868 3.50277 14.6206C2.57828 14.0398 2.05392 13.1685 1.74253 12.0843C1.33434 10.6661 1.25689 9.20598 1.3779 7.72003C1.44244 6.94882 1.55376 6.17599 1.69413 5.40962C1.98777 3.79459 2.91065 2.77814 4.37885 2.10373C5.30657 1.67779 6.2972 1.46804 7.34108 1.34058C8.0526 1.25346 8.76412 1.22603 9.47725 1.247ZM9.6515 3.30572C9.31107 3.30572 8.98032 3.34444 8.65925 3.41544C8.43821 3.46706 8.29784 3.6881 8.34786 3.91075C8.39787 4.1334 8.62052 4.27216 8.84317 4.22214C9.10293 4.16245 9.37399 4.13179 9.6515 4.13179C11.6683 4.13179 13.2946 5.75811 13.2946 7.77327C13.2946 8.05239 13.2639 8.32345 13.2042 8.58482C13.1542 8.80586 13.293 9.02851 13.5156 9.07852C13.7383 9.12854 13.9593 8.98817 14.0093 8.76552C14.0819 8.44606 14.1207 8.11531 14.1207 7.77327C14.1207 5.3112 12.1152 3.30572 9.6515 3.30572ZM5.53083 4.1334C5.46307 4.13018 5.39369 4.13502 5.32109 4.15115C4.57085 4.31733 3.82545 4.86105 3.80448 5.83233C3.82545 5.96786 3.82384 6.11307 3.87385 6.23569C4.11909 6.83588 4.33206 7.45543 4.63861 8.02335C6.13102 10.7823 8.38819 12.7006 11.2649 13.9188C11.6086 14.064 11.9635 14.0946 12.3104 13.9494C12.788 13.751 13.1929 13.4444 13.4624 13.004C13.8319 12.3989 13.8367 11.9794 13.2284 11.5325C12.8299 11.2389 12.4379 10.9372 12.0345 10.65C11.4198 10.2144 10.7551 10.1385 10.2969 10.9033C10.2727 10.942 10.2372 10.9743 10.2065 11.0066C9.97095 11.2566 9.68215 11.3179 9.3756 11.1921C8.21233 10.7129 7.31366 9.94009 6.77155 8.78972C6.45209 8.1137 6.53922 7.77488 7.13618 7.32474C7.19588 7.28118 7.25235 7.23439 7.3072 7.18437C7.56858 6.94559 7.63795 6.66163 7.48307 6.34056C7.13295 5.60807 6.66668 4.95463 6.07617 4.39155C5.91644 4.23989 5.73412 4.1447 5.53083 4.1334ZM9.64504 4.54483C9.46273 4.54483 9.28202 4.55935 9.10455 4.59C8.9545 4.60936 8.82704 4.70939 8.77218 4.84976C8.71733 4.99174 8.74476 5.15147 8.84156 5.26764C8.93998 5.38219 9.09487 5.43543 9.2433 5.40316C9.37238 5.38219 9.5079 5.37089 9.64504 5.37089C10.9874 5.37089 12.0652 6.44866 12.0652 7.79102C12.0652 7.92816 12.0539 8.06369 12.0329 8.19276C12.0006 8.34119 12.0539 8.49608 12.1684 8.5945C12.2846 8.6913 12.4443 8.71873 12.5863 8.66388C12.7267 8.60902 12.8267 8.48156 12.8461 8.33151C12.8767 8.15404 12.8912 7.97333 12.8912 7.79102C12.8912 6.00335 11.4327 4.54483 9.64504 4.54483ZM9.58696 5.78393C9.43853 5.78232 9.29977 5.85976 9.22394 5.98883C9.14972 6.11791 9.14972 6.27602 9.22394 6.40509C9.29977 6.53417 9.43853 6.61161 9.58696 6.61C10.2759 6.61 10.8261 7.16017 10.8261 7.8491C10.8244 7.99754 10.9019 8.13629 11.031 8.21212C11.16 8.28634 11.3182 8.28634 11.4472 8.21212C11.5763 8.13629 11.6537 7.99754 11.6521 7.8491C11.6521 6.71326 10.7228 5.78393 9.58696 5.78393Z" fill="white"/>
</svg>
