<svg width="33" height="33" viewBox="0 0 33 33" fill="none" xmlns="http://www.w3.org/2000/svg">
<path d="M23.6343 19.5458C23.2433 19.3479 21.3394 18.4189 20.9835 18.2863C20.6277 18.1595 20.3693 18.0932 20.11 18.4842C19.8565 18.8654 19.1098 19.7379 18.8816 19.9923C18.6535 20.2468 18.4293 20.2663 18.0442 20.0937C17.6533 19.8958 16.4044 19.4893 14.9216 18.1595C13.7634 17.1291 12.9923 15.8597 12.7632 15.4688C12.535 15.0828 12.7378 14.8644 12.9309 14.6713C13.1083 14.4939 13.3218 14.2248 13.5197 13.9909C13.7079 13.7569 13.7683 13.5999 13.9058 13.3465C14.0325 13.0725 13.9672 12.859 13.8707 12.666C13.7741 12.473 12.9972 10.5592 12.6725 9.79686C12.3625 9.04034 12.0379 9.13685 11.799 9.13685C11.5757 9.11638 11.3164 9.11638 11.0581 9.11638C10.7997 9.11638 10.3776 9.21289 10.0218 9.58335C9.66593 9.97429 8.66081 10.9082 8.66081 12.7976C8.66081 14.6918 10.052 16.5246 10.245 16.7986C10.4429 17.052 12.9816 20.9516 16.8763 22.6275C17.8053 23.0184 18.5268 23.2524 19.0903 23.4454C20.0193 23.7398 20.8675 23.6989 21.5373 23.6024C22.2782 23.4805 23.8322 22.6626 24.1578 21.7491C24.4883 20.8298 24.4883 20.0684 24.3918 19.8958C24.2952 19.7184 24.0418 19.6219 23.6508 19.4493L23.6343 19.5458ZM16.5711 29.1223H16.5507C14.245 29.1223 11.9657 28.4973 9.97497 27.3294L9.50799 27.0506L4.6335 28.3199L5.94377 23.577L5.62887 23.0896C4.34149 21.0426 3.65851 18.6737 3.65861 16.2556C3.65861 9.1778 9.45242 3.40445 16.5809 3.40445C20.034 3.40445 23.2735 4.74981 25.7108 7.18706C26.9131 8.37506 27.8668 9.7906 28.5162 11.3511C29.1657 12.9116 29.4979 14.5858 29.4934 16.276C29.4836 23.3489 23.6947 29.1223 16.576 29.1223H16.5711ZM27.5641 5.33377C24.5984 2.46952 20.6988 0.85022 16.5507 0.85022C7.99495 0.85022 1.02833 7.78662 1.02346 16.3111C1.02346 19.033 1.73416 21.6887 3.09511 24.0391L0.891846 32.0469L9.12778 29.8992C11.4093 31.1293 13.9596 31.7764 16.5516 31.7828H16.5565C25.1171 31.7828 32.0837 24.8464 32.0886 16.316C32.0886 12.1883 30.479 8.30331 27.5446 5.38349L27.5641 5.33377Z" fill="#D0D0D0"/>
</svg>
