<svg width="51" height="50" viewBox="0 0 51 50" fill="none" xmlns="http://www.w3.org/2000/svg">
<path d="M25.7813 50C39.6747 50 50.9375 38.8071 50.9375 25C50.9375 11.1929 39.6747 0 25.7813 0C11.8878 0 0.625008 11.1929 0.625008 25C0.625008 38.8071 11.8878 50 25.7813 50Z" fill="url(#paint0_linear_1_416)"/>
<path fill-rule="evenodd" clip-rule="evenodd" d="M37.8823 13.2815C34.871 10.2852 30.861 8.63336 26.5937 8.63336C17.7983 8.63336 10.6391 15.7445 10.6353 24.4852C10.6353 27.2778 11.3695 30.0074 12.7671 32.4111L10.5049 40.626L18.9648 38.4223C21.2941 39.6852 23.9216 40.3519 26.59 40.3519H26.5974C35.3928 40.3519 42.5521 33.2408 42.5558 24.4963C42.5521 20.263 40.8936 16.2778 37.8823 13.2815ZM26.5937 37.6741H26.59C24.2085 37.6741 21.8755 37.0371 19.8407 35.8371L19.3562 35.5519L14.3361 36.8593L15.6778 31.9963L15.361 31.4963C14.0342 29.4 13.3336 26.9741 13.3336 24.4852C13.3336 17.2223 19.2816 11.3111 26.5974 11.3111C30.1417 11.3111 33.4698 12.6852 35.9742 15.1741C38.4786 17.6667 39.8576 20.9741 39.8538 24.4963C39.8538 31.763 33.9058 37.6741 26.5937 37.6741ZM33.8685 27.8037C33.4697 27.6037 31.5094 26.6482 31.1442 26.5148C30.779 26.3815 30.5144 26.3148 30.246 26.7148C29.9814 27.1111 29.2174 28.0037 28.9826 28.2667C28.7516 28.5297 28.5168 28.563 28.118 28.3667C27.7192 28.1667 26.4335 27.7519 24.9129 26.4C23.7278 25.3482 22.9265 24.0519 22.6954 23.6556C22.4644 23.2593 22.6693 23.0445 22.8706 22.8482C23.0495 22.6704 23.2694 22.3852 23.4669 22.1556C23.6644 21.926 23.7315 21.7593 23.8657 21.4963C23.9998 21.2334 23.9327 21 23.8321 20.8037C23.7315 20.6037 22.9339 18.6556 22.6023 17.863C22.278 17.0889 21.9501 17.1963 21.7041 17.1815C21.473 17.1704 21.2047 17.1667 20.9401 17.1667C20.6755 17.1667 20.2432 17.2667 19.8779 17.663C19.5127 18.0593 18.4841 19.0185 18.4841 20.9667C18.4841 22.9148 19.9115 24.8 20.1127 25.063C20.3102 25.326 22.9228 29.3297 26.9254 31.0445C27.8757 31.4519 28.6211 31.6963 29.1988 31.8778C30.1529 32.1778 31.0249 32.1371 31.7107 32.0334C32.4784 31.9185 34.0698 31.0741 34.4015 30.1482C34.7332 29.2223 34.7332 28.4297 34.6325 28.263C34.5356 28.1037 34.2673 28.0037 33.8685 27.8037Z" fill="white"/>
<defs>
<linearGradient id="paint0_linear_1_416" x1="25.7813" y1="46.3675" x2="25.7813" y2="-3.63248" gradientUnits="userSpaceOnUse">
<stop stop-color="#78CD51"/>
<stop offset="1" stop-color="#A0FC84"/>
</linearGradient>
</defs>
</svg>
