<svg width="24" height="17" viewBox="0 0 24 17" fill="none" xmlns="http://www.w3.org/2000/svg">
<path d="M11.9578 0H12.09C13.3108 0.00445576 19.4969 0.0490136 21.1649 0.49756C21.6691 0.634454 22.1286 0.901286 22.4974 1.27139C22.8662 1.64149 23.1314 2.10191 23.2665 2.60662C23.4165 3.17102 23.522 3.9181 23.5933 4.68895L23.6081 4.84341L23.6408 5.22958L23.6527 5.38405C23.7492 6.74157 23.7611 8.01295 23.7626 8.29069V8.40208C23.7611 8.69022 23.7477 10.0477 23.6408 11.4617L23.6289 11.6177L23.6155 11.7721C23.5413 12.6217 23.4314 13.4653 23.2665 14.0862C23.1318 14.5911 22.8667 15.0517 22.4979 15.4219C22.129 15.792 21.6693 16.0587 21.1649 16.1952C19.442 16.6586 12.8935 16.6913 11.986 16.6928H11.7751C11.3161 16.6928 9.418 16.6839 7.42775 16.6155L7.17526 16.6066L7.04604 16.6007L6.79207 16.5903L6.53809 16.5799C4.88946 16.5071 3.31954 16.3898 2.59622 16.1937C2.09196 16.0574 1.63239 15.7909 1.26354 15.421C0.894693 15.0511 0.62952 14.5908 0.49459 14.0862C0.329726 13.4668 0.219818 12.6217 0.145555 11.7721L0.133673 11.6162L0.121791 11.4617C0.04849 10.4553 0.00787165 9.44677 0 8.43773L0 8.25504C0.00297051 7.93571 0.0148525 6.83217 0.0950563 5.61426L0.105453 5.46128L0.109909 5.38405L0.121791 5.22958L0.154466 4.84341L0.169319 4.68895C0.240611 3.9181 0.346064 3.16953 0.496075 2.60662C0.630778 2.10171 0.895849 1.64107 1.26471 1.27091C1.63358 0.900738 2.09327 0.634044 2.59771 0.49756C3.32103 0.304477 4.89094 0.185657 6.53957 0.111394L6.79207 0.100997L7.04753 0.092086L7.17526 0.0876302L7.42924 0.0772335C8.84277 0.0317469 10.2569 0.00649481 11.6711 0.00148532H11.9578V0ZM9.50563 4.76767V11.9236L15.6798 8.34713L9.50563 4.76767Z" fill="#B8A04D"/>
</svg>
